<?xml version="1.0" encoding="UTF-8"?>
<svg version="1.1" xmlns="http://www.w3.org/2000/svg" fill="none" stroke="currentColor">
<path d="M0 0 C1.42070801 0.37898438 1.42070801 0.37898438 2.87011719 0.765625 C27.19485554 7.3013466 52.01781829 15.12494047 72.5078125 30.2265625 C77.48465406 33.76807671 82.77262432 36.84554916 88 40 C87.47565995 45.82135283 85.10332909 50.29028872 82.4765625 55.40234375 C82.01575287 56.31593155 81.55494324 57.22951935 81.08016968 58.17079163 C79.60265214 61.09691639 78.11441079 64.0174137 76.625 66.9375 C74.69682404 70.7364155 72.77324838 74.53764158 70.8515625 78.33984375 C70.3631337 79.30497391 69.8747049 80.27010406 69.37147522 81.26448059 C66.08856454 87.77430844 62.90820179 94.32624552 59.78515625 100.9140625 C53.02809009 115.15536216 45.9415503 129.23110902 38.87426758 143.32012939 C37.07545352 146.90731373 35.27905727 150.49570851 33.48242188 154.08398438 C29.99056859 161.05713728 26.49616269 168.02900654 23 175 C18.99095635 174.27215266 15.89953116 173.08422032 12.25 171.25 C-8.50071871 161.59418458 -34.03733103 157.22851483 -56.30859375 164.00390625 C-67.35297388 168.09144897 -75.35640618 174.2293173 -80.6875 184.875 C-85.59970341 196.84952952 -88.16205305 209.3853067 -89.75 222.1875 C-89.86553223 223.10418457 -89.98106445 224.02086914 -90.10009766 224.96533203 C-92.4013979 245.6351289 -92.17748896 266.60802501 -92.31640625 287.375 C-92.33487969 289.71354459 -92.35371962 292.05208631 -92.3729248 294.390625 C-92.44052536 302.92704956 -92.50111543 311.46352848 -92.5625 320 C-92.706875 339.14 -92.85125 358.28 -93 378 C-51.42 378 -9.84 378 33 378 C33 425.85 33 473.7 33 523 C-8.58 523 -50.16 523 -93 523 C-93 655.99 -93 788.98 -93 926 C-155.37 926 -217.74 926 -282 926 C-282 793.01 -282 660.02 -282 523 C-308.07 523 -334.14 523 -361 523 C-361 475.15 -361 427.3 -361 378 C-334.93 378 -308.86 378 -282 378 C-282.03480469 368.20441406 -282.06960938 358.40882813 -282.10546875 348.31640625 C-282.12083107 342.04101317 -282.1354009 335.76563407 -282.14648438 329.49023438 C-282.16414726 319.57050822 -282.18467661 309.65085957 -282.22631836 299.73120117 C-282.25665784 292.50032239 -282.27567589 285.26950769 -282.28226548 278.03856701 C-282.28610428 274.22620267 -282.29481407 270.41402132 -282.31719017 266.601717 C-282.40641421 250.75018291 -282.07936113 235.05825196 -280.62231445 219.26538086 C-280.56069638 218.5940887 -280.4990783 217.92279654 -280.43559301 217.23116219 C-274.1475034 150.33395114 -249.47444822 81.08033537 -197.58203125 35.89453125 C-195.09877983 33.86498971 -192.56382349 31.9266159 -190 30 C-189.05640625 29.25492188 -188.1128125 28.50984375 -187.140625 27.7421875 C-135.80197559 -11.78937849 -60.89636537 -16.71926497 0 0 Z " fill="#EA580C" transform="translate(542,31)"/>
<path d="M0 0 C1.23169922 0.53560547 1.23169922 0.53560547 2.48828125 1.08203125 C15.22670512 6.98215229 26.07728879 16.21568086 36 26 C36.85207031 26.83917969 37.70414063 27.67835938 38.58203125 28.54296875 C61.17565357 52.06168427 71.14751806 83.26249629 71.03125 115.46875 C70.12758395 150.041005 54.82504205 179.54180033 30.2109375 203.1953125 C4.84718918 226.68460367 -27.14334683 235.00025301 -61.02880859 234.140625 C-87.19551436 232.90216793 -111.14442832 222.92066063 -131 206 C-131.94746094 205.19949219 -132.89492188 204.39898438 -133.87109375 203.57421875 C-158.59639145 181.87125913 -172.64618787 152.68902026 -174.921875 119.8984375 C-175.83253007 86.11313448 -166.74933589 54.25471998 -143.31396484 29.19726562 C-105.78203542 -10.34369651 -50.35282583 -22.62819298 0 0 Z " fill="#EA580C" transform="translate(702,739)"/>
</svg>
